<svg width="39" height="39" viewBox="0 0 39 39" fill="none" xmlns="http://www.w3.org/2000/svg">
<circle cx="19.0063" cy="19.0063" r="18.5538" stroke="#FF7495" stroke-width="0.905063"/>
<path d="M26.0254 13H12.0254C11.0629 13 10.2841 13.7875 10.2841 14.75L10.2754 25.25C10.2754 26.2125 11.0629 27 12.0254 27H26.0254C26.9879 27 27.7754 26.2125 27.7754 25.25V14.75C27.7754 13.7875 26.9879 13 26.0254 13ZM25.6754 16.7188L19.4891 20.5863C19.2091 20.7613 18.8416 20.7613 18.5616 20.5863L12.3754 16.7188C12.2877 16.6695 12.2108 16.603 12.1495 16.5231C12.0883 16.4433 12.0438 16.3519 12.0189 16.2544C11.994 16.157 11.9891 16.0554 12.0045 15.956C12.02 15.8566 12.0554 15.7613 12.1088 15.676C12.1621 15.5907 12.2322 15.5171 12.3148 15.4596C12.3974 15.4022 12.4908 15.3621 12.5893 15.3418C12.6879 15.3215 12.7895 15.3213 12.8881 15.3415C12.9867 15.3616 13.0802 15.4015 13.1629 15.4588L19.0254 19.125L24.8879 15.4588C24.9706 15.4015 25.0641 15.3616 25.1627 15.3415C25.2613 15.3213 25.3629 15.3215 25.4615 15.3418C25.56 15.3621 25.6534 15.4022 25.736 15.4596C25.8186 15.5171 25.8887 15.5907 25.942 15.676C25.9953 15.7613 26.0308 15.8566 26.0463 15.956C26.0617 16.0554 26.0568 16.157 26.0319 16.2544C26.007 16.3519 25.9625 16.4433 25.9012 16.5231C25.84 16.603 25.7631 16.6695 25.6754 16.7188Z" fill="#E9DEFF"/>
</svg>
