<svg width="39" height="39" viewBox="0 0 39 39" fill="none" xmlns="http://www.w3.org/2000/svg">
<circle cx="19.0063" cy="19.0063" r="18.5538" stroke="#FF7495" stroke-width="0.905063"/>
<path d="M15.4339 12.6953C16.0216 12.898 16.5805 13.1792 17.0961 13.5316C17.8247 13.341 18.574 13.2453 19.3261 13.247C20.1029 13.247 20.8522 13.3461 21.5546 13.5308C22.07 13.1788 22.6287 12.8978 23.2161 12.6953C23.7613 12.5059 24.538 12.1989 24.9995 12.7209C25.3124 13.0759 25.3906 13.6707 25.4461 14.1248C25.5087 14.6317 25.5236 15.292 25.3593 15.9476C25.9874 16.7766 26.366 17.7656 26.366 18.8433C26.366 20.4758 25.5009 21.8933 24.2204 22.875C23.6039 23.3411 22.9205 23.7068 22.1945 23.9591C22.3619 24.3509 22.455 24.7842 22.455 25.2391V27.6375C22.455 27.8495 22.3726 28.0529 22.2259 28.2028C22.0792 28.3527 21.8802 28.437 21.6728 28.437H16.9795C16.7721 28.437 16.5731 28.3527 16.4264 28.2028C16.2797 28.0529 16.1973 27.8495 16.1973 27.6375V26.8452C15.4503 26.9388 14.8238 26.8556 14.2911 26.6246C13.7342 26.3831 13.3462 26.009 13.0544 25.6508C12.7775 25.3118 12.4756 24.5475 12.0391 24.3988C11.9416 24.3657 11.8515 24.3132 11.7739 24.2444C11.6962 24.1756 11.6326 24.0919 11.5866 23.998C11.4938 23.8083 11.4784 23.5887 11.544 23.3875C11.6095 23.1863 11.7506 23.0199 11.9362 22.925C12.1217 22.8301 12.3366 22.8144 12.5335 22.8814C13.0544 23.0589 13.3939 23.4427 13.6262 23.7513C14.0017 24.2469 14.3067 24.8945 14.9012 25.1527C15.146 25.2591 15.5051 25.3286 16.0667 25.2503L16.1973 25.2231C16.1991 24.788 16.2878 24.3579 16.4578 23.9591C15.7318 23.7068 15.0484 23.3411 14.4319 22.875C13.1514 21.8933 12.2863 20.4766 12.2863 18.8433C12.2863 17.7672 12.6641 16.779 13.2906 15.9508C13.1264 15.2952 13.1405 14.6333 13.203 14.1256L13.2069 14.0952C13.264 13.6299 13.3305 13.0823 13.6497 12.7209C14.1112 12.1989 14.8887 12.5067 15.4331 12.6961L15.4339 12.6953Z" fill="#E9DEFF"/>
</svg>
